<svg width="24" height="24" viewBox="0 0 24 24" fill="none" xmlns="http://www.w3.org/2000/svg">
<circle cx="10" cy="9" r="4" fill="#33363F"/>
<path fill-rule="evenodd" clip-rule="evenodd" d="M15.6326 18.8128C15.6537 18.9183 15.7429 19 15.8505 19H17.6359C18.2374 19 18.6899 18.471 18.4888 17.9042C18.0688 16.7199 17.0637 15 14.7687 15C14.643 15 14.5213 15.0052 14.4033 15.0151C14.0277 15.0467 13.9315 15.5087 14.1837 15.7889V15.7889C15.0884 16.7941 15.4685 17.9918 15.6326 18.8128V18.8128ZM14.2962 17.8332C14.5399 18.4159 14.0604 19 13.4288 19H11.9014C11.2999 19 10.8473 18.4711 11.0484 17.9042C11.2385 17.3683 11.5484 16.7226 12.0435 16.1763C12.322 15.869 12.7906 15.8468 13.1012 16.1214C13.6735 16.6274 14.0494 17.2429 14.2962 17.8332Z" fill="#33363F"/>
<path d="M10 15C13.5715 15 14.5919 17.5512 14.8834 19.0089C14.9917 19.5504 14.5523 20 14 20H6C5.44772 20 5.00829 19.5504 5.11659 19.0089C5.4081 17.5512 6.42846 15 10 15Z" fill="#33363F"/>
<path fill-rule="evenodd" clip-rule="evenodd" d="M12.4821 12.5882C13.4183 11.6795 14 10.4077 14 9C14 8.29933 13.8559 7.63233 13.5957 7.02702C13.7279 7.0092 13.8629 7 14 7C15.6569 7 17 8.34315 17 10C17 11.6569 15.6569 13 14 13C13.4462 13 12.9274 12.8499 12.4821 12.5882ZM11.7119 11.9404C12.5039 11.2095 13 10.1627 13 9C13 8.40307 12.8692 7.83668 12.6348 7.32791C11.6643 7.82475 11 8.8348 11 10C11 10.7399 11.2679 11.4173 11.7119 11.9404Z" fill="#33363F"/>
</svg>
