<svg width="24" height="24" viewBox="0 0 24 24" fill="none" xmlns="http://www.w3.org/2000/svg">
<circle cx="10" cy="9" r="3" stroke="#33363F" stroke-width="2" stroke-linecap="round"/>
<path d="M13.2679 9C13.5332 8.54063 13.97 8.20543 14.4824 8.06815C14.9947 7.93086 15.5406 8.00273 16 8.26795C16.4594 8.53317 16.7946 8.97 16.9319 9.48236C17.0691 9.99472 16.9973 10.5406 16.7321 11C16.4668 11.4594 16.03 11.7946 15.5176 11.9319C15.0053 12.0691 14.4594 11.9973 14 11.7321C13.5406 11.4668 13.2054 11.03 13.0681 10.5176C12.9309 10.0053 13.0027 9.45937 13.2679 9L13.2679 9Z" stroke="#33363F" stroke-width="2"/>
<path d="M14.8816 19L13.9012 19.1974L14.0629 20H14.8816V19ZM18.7201 17.9042L19.6626 17.5699L19.6626 17.5699L18.7201 17.9042ZM12.7808 15.7105L12.1759 14.9142L11.0193 15.7927L12.2526 16.5597L12.7808 15.7105ZM17.8672 18H14.8816V20H17.8672V18ZM17.7777 18.2384C17.7706 18.2186 17.7641 18.181 17.7725 18.1354C17.7803 18.0921 17.7982 18.0593 17.8151 18.0383C17.8473 17.9982 17.8739 18 17.8672 18V20C19.0132 20 20.1413 18.9194 19.6626 17.5699L17.7777 18.2384ZM15 16C16.6415 16 17.4026 17.1811 17.7777 18.2384L19.6626 17.5699C19.1976 16.2588 17.9485 14 15 14V16ZM13.3856 16.5069C13.7701 16.2148 14.2819 16 15 16V14C13.8381 14 12.9027 14.3622 12.1759 14.9142L13.3856 16.5069ZM12.2526 16.5597C13.2918 17.206 13.727 18.3324 13.9012 19.1974L15.8619 18.8026C15.6439 17.7204 15.0374 15.9364 13.3089 14.8614L12.2526 16.5597Z" fill="#33363F"/>
<path d="M10 15C13.5715 15 14.5919 17.5512 14.8834 19.0089C14.9917 19.5504 14.5523 20 14 20H6C5.44772 20 5.00829 19.5504 5.11659 19.0089C5.4081 17.5512 6.42846 15 10 15Z" stroke="#33363F" stroke-width="2" stroke-linecap="round"/>
</svg>
